<svg version="1.2" xmlns="http://www.w3.org/2000/svg" viewBox="0 0 24 24" width="24" height="24">
	<title>volume-high-svg</title>
	<style>
		.s0 { opacity: .4;fill: #ffffff } 
		.s1 { fill: #ffffff } 
	</style>
	<g id="vuesax/bulk/volume-high">
		<g id="volume-high">
			<path id="Vector_3" class="s0" d="m15.8 7.4l-0.1 9.2c0 1.7-0.6 3-1.7 3.6q-0.7 0.4-1.4 0.4-1.3 0-2.6-0.8l-2.9-1.9q-0.3-0.1-0.7-0.1h-0.9v-11.5h0.9q0.4-0.1 0.7-0.2l2.9-1.9c1.5-0.9 2.9-1 4-0.4 1.1 0.6 1.7 1.9 1.7 3.6z"/>
			<path id="Vector_4" class="s1" d="m5.5 6.3v11.4h-0.5c-2.4 0-3.8-1.3-3.8-3.7v-4c0-2.4 1.4-3.8 3.8-3.8z"/>
		</g>
	</g>
</svg>